<?xml version="1.0" encoding="UTF-8" standalone="no"?><!DOCTYPE svg PUBLIC "-//W3C//DTD SVG 1.1//EN" "http://www.w3.org/Graphics/SVG/1.1/DTD/svg11.dtd"><svg width="100%" height="100%" viewBox="0 0 24 24" version="1.1" xmlns="http://www.w3.org/2000/svg" xmlns:xlink="http://www.w3.org/1999/xlink" xml:space="preserve" xmlns:serif="http://www.serif.com/" style="fill-rule:evenodd;clip-rule:evenodd;stroke-linejoin:round;stroke-miterlimit:2;"><g><rect x="-0" y="-0" width="24" height="24" style="fill:#dcecff;fill-opacity:0;"/><g><path d="M11.98,21.044c-4.963,-0 -9,-4.038 -9,-9c-0,-4.963 4.037,-9 9,-9c4.963,-0 9,4.037 9,9c-0,4.962 -4.037,9 -9,9Zm-0,-19c-5.514,-0 -10,4.486 -10,10c-0,5.514 4.486,10 10,10c5.513,-0 10,-4.486 10,-10c-0,-5.514 -4.487,-10 -10,-10Z" style="fill:#2ecadb;fill-rule:nonzero;"/><path d="M18.847,13.048c0.283,0.553 0.103,1.223 -0.418,1.56c-0.594,0.384 -0.969,1.034 -1.004,1.74c-0.031,0.619 -0.523,1.109 -1.142,1.141c-0.706,0.036 -1.356,0.411 -1.74,1.005c-0.338,0.521 -1.008,0.7 -1.558,0.418c-0.315,-0.162 -0.661,-0.243 -1.005,-0.243c-0.345,0 -0.691,0.081 -1.006,0.243c-0.551,0.282 -1.221,0.103 -1.558,-0.418c-0.384,-0.594 -1.034,-0.969 -1.74,-1.005c-0.619,-0.032 -1.11,-0.522 -1.142,-1.141c-0.035,-0.706 -0.41,-1.356 -1.004,-1.74c-0.521,-0.337 -0.701,-1.007 -0.418,-1.56c0.323,-0.629 0.323,-1.38 0,-2.008c-0.283,-0.553 -0.103,-1.223 0.418,-1.56c0.594,-0.384 0.969,-1.034 1.004,-1.74c0.032,-0.619 0.523,-1.11 1.142,-1.141c0.706,-0.036 1.356,-0.412 1.74,-1.005c0.337,-0.522 1.007,-0.702 1.558,-0.418c0.629,0.323 1.379,0.323 2.011,0c0.55,-0.284 1.22,-0.104 1.558,0.418c0.384,0.593 1.034,0.969 1.74,1.005c0.619,0.031 1.111,0.522 1.142,1.141c0.035,0.706 0.41,1.356 1.004,1.74c0.521,0.337 0.701,1.007 0.418,1.559c-0.322,0.629 -0.322,1.38 -0,2.009Zm0.89,-1.553c0.518,-1.011 0.189,-2.239 -0.765,-2.855c-0.324,-0.209 -0.529,-0.564 -0.549,-0.95c-0.057,-1.134 -0.955,-2.033 -2.089,-2.09c-0.386,-0.02 -0.741,-0.225 -0.951,-0.549c-0.616,-0.953 -1.843,-1.282 -2.856,-0.764c-0.342,0.175 -0.753,0.175 -1.095,-0c-1.011,-0.518 -2.239,-0.189 -2.856,0.764c-0.21,0.324 -0.565,0.529 -0.951,0.549c-1.134,0.057 -2.032,0.956 -2.089,2.09c-0.019,0.386 -0.224,0.741 -0.549,0.95c-0.954,0.616 -1.283,1.844 -0.765,2.856c0.177,0.343 0.177,0.753 -0,1.097c-0.518,1.011 -0.189,2.238 0.765,2.855c0.325,0.209 0.53,0.564 0.549,0.949c0.057,1.135 0.955,2.034 2.089,2.091c0.386,0.019 0.741,0.224 0.951,0.549c0.617,0.954 1.845,1.283 2.856,0.764c0.342,-0.176 0.753,-0.176 1.095,0c0.324,0.166 0.668,0.245 1.008,0.245c0.725,-0 1.428,-0.36 1.848,-1.009c0.21,-0.325 0.565,-0.53 0.951,-0.549c1.134,-0.057 2.032,-0.956 2.089,-2.091c0.02,-0.385 0.225,-0.74 0.549,-0.949c0.954,-0.617 1.283,-1.844 0.765,-2.856c-0.176,-0.343 -0.176,-0.753 0,-1.097Z" style="fill:#2ecadb;fill-rule:nonzero;"/><path d="M7.98,12.544l-0,-1c-0,-0.276 -0.224,-0.5 -0.5,-0.5c-0.277,-0 -0.5,0.224 -0.5,0.5l-0,1c-0,0.276 0.223,0.5 0.5,0.5c0.276,-0 0.5,-0.224 0.5,-0.5Z" style="fill:#2ecadb;fill-rule:nonzero;"/><path d="M11.98,14.044c-1.103,-0 -2,-0.897 -2,-2c-0,-1.103 0.897,-2 2,-2c1.102,-0 2,0.897 2,2c-0,1.103 -0.898,2 -2,2Zm-0,-5c-1.655,-0 -3,1.346 -3,3c-0,1.654 1.345,3 3,3c1.654,-0 3,-1.346 3,-3c-0,-1.654 -1.346,-3 -3,-3Z" style="fill:#2ecadb;fill-rule:nonzero;"/><path d="M16.48,11.044c-0.277,-0 -0.5,0.224 -0.5,0.5l-0,1c-0,0.276 0.223,0.5 0.5,0.5c0.276,-0 0.5,-0.224 0.5,-0.5l-0,-1c-0,-0.276 -0.224,-0.5 -0.5,-0.5Z" style="fill:#2ecadb;fill-rule:nonzero;"/><path d="M15.626,9.897c0.098,0.098 0.226,0.147 0.354,0.147c0.128,-0 0.255,-0.049 0.353,-0.147c0.195,-0.195 0.195,-0.511 0,-0.707l-0.5,-0.5c-0.195,-0.195 -0.512,-0.195 -0.707,0c-0.195,0.196 -0.195,0.512 0,0.707l0.5,0.5Z" style="fill:#2ecadb;fill-rule:nonzero;"/><path d="M7.98,10.044c0.128,-0 0.255,-0.049 0.353,-0.147l0.5,-0.5c0.195,-0.195 0.195,-0.511 0,-0.707c-0.195,-0.195 -0.512,-0.195 -0.707,0l-0.5,0.5c-0.195,0.196 -0.195,0.512 0,0.707c0.098,0.098 0.226,0.147 0.354,0.147Z" style="fill:#2ecadb;fill-rule:nonzero;"/><path d="M13.105,8.044l0.75,-0c0.276,-0 0.5,-0.224 0.5,-0.5c-0,-0.276 -0.224,-0.5 -0.5,-0.5l-0.75,-0c-0.277,-0 -0.5,0.224 -0.5,0.5c-0,0.276 0.223,0.5 0.5,0.5Z" style="fill:#2ecadb;fill-rule:nonzero;"/><path d="M10.105,8.044l0.75,-0c0.276,-0 0.5,-0.224 0.5,-0.5c-0,-0.276 -0.224,-0.5 -0.5,-0.5l-0.75,-0c-0.277,-0 -0.5,0.224 -0.5,0.5c-0,0.276 0.223,0.5 0.5,0.5Z" style="fill:#2ecadb;fill-rule:nonzero;"/><path d="M15.626,14.19l-0.5,0.5c-0.195,0.196 -0.195,0.512 0,0.707c0.098,0.098 0.226,0.147 0.354,0.147c0.128,-0 0.255,-0.049 0.353,-0.147l0.5,-0.5c0.195,-0.195 0.195,-0.511 0,-0.707c-0.195,-0.195 -0.512,-0.195 -0.707,0Z" style="fill:#2ecadb;fill-rule:nonzero;"/><path d="M8.333,14.19c-0.195,-0.195 -0.512,-0.195 -0.707,0c-0.195,0.196 -0.195,0.512 0,0.707l0.5,0.5c0.098,0.098 0.226,0.147 0.354,0.147c0.128,-0 0.255,-0.049 0.353,-0.147c0.195,-0.195 0.195,-0.511 0,-0.707l-0.5,-0.5Z" style="fill:#2ecadb;fill-rule:nonzero;"/><path d="M13.855,16.044l-0.75,-0c-0.277,-0 -0.5,0.224 -0.5,0.5c-0,0.276 0.223,0.5 0.5,0.5l0.75,-0c0.276,-0 0.5,-0.224 0.5,-0.5c-0,-0.276 -0.224,-0.5 -0.5,-0.5Z" style="fill:#2ecadb;fill-rule:nonzero;"/><path d="M10.855,16.044l-0.75,-0c-0.277,-0 -0.5,0.224 -0.5,0.5c-0,0.276 0.223,0.5 0.5,0.5l0.75,-0c0.276,-0 0.5,-0.224 0.5,-0.5c-0,-0.276 -0.224,-0.5 -0.5,-0.5Z" style="fill:#2ecadb;fill-rule:nonzero;"/></g></g></svg>